# xmcd CD database file
#
# Track frame offsets:
#	150
#	14483
#	31531
#	49629
#	65249
#	78290
#	95520
#	114645
#	130755
#	146284
#	158223
#	177726
#	195109
#	218239
#	233475
#	259127
#	273988
#
# Disc length: 3872 seconds
#
# Revision: 0
# Processed by: cddbd v1.5.2PL0 Copyright (c) Steve Scherf et al.
# Submitted via: CDex 1.70beta2
#
DISCID=e30f1e11
DTITLE=Various Artist - Si, para usted - The funky beats of Revolutionary Cuba - Volume 1
DYEAR=2006
DGENRE=Jazz
TTITLE0=Juan Pablo Torres y Algo Nuevo - Son a Propulsion
TTITLE1=Irakere - Bacalao Con Pan
TTITLE2=Los Van Van - Y no le conviene
TTITLE3=Los Reyes '73 - Adeoey
TTITLE4=Combo Tiempos Nuevos - De La Fiesta La Mejor
TTITLE5=Grupo Monumental - Si, Para Usted
TTITLE6=Los Tainos - Amor Mio
TTITLE7=Ricardo Eddy Martinez - Tambo lya
TTITLE8=Orquesta Riverside - En Casa Del Trompo No Bailes
TTITLE9=Juan Pablo Torres y Algo Nuevo - Y Viva La Felicidad
TTITLE10=Juan Pablo Torres y Algo Nuevo - Rompe Cocorioco
TTITLE11=Los 5-U-4 - Baila, Ven Y Baila
TTITLE12=Sintesis - Con La Luz Del La Manana
TTITLE13=Jorge Reyes - Pocito
TTITLE14=Grupo Los Yoyi - El Fino
TTITLE15=Grupo De Experimentacion Sonora del ICAIC - Sondeando
TTITLE16=Mirtha Y Raul - Casina Y Epidecus
EXTD=YEAR: 2006
EXTT0=
EXTT1=
EXTT2=
EXTT3=
EXTT4=
EXTT5=
EXTT6=
EXTT7=
EXTT8=
EXTT9=
EXTT10=
EXTT11=
EXTT12=
EXTT13=
EXTT14=
EXTT15=
EXTT16=
PLAYORDER=
